<svg xmlns="http://www.w3.org/2000/svg" width="63.88" height="28.96" viewBox="0 0 63.88 28.96">
  <path id="Tracé_6" data-name="Tracé 6" d="M16.96-7.32c0,2.28-2.48,3.24-4.88,3.24-4.24,0-6.64-4.2-6.64-4.2L1.84-5.24A12.239,12.239,0,0,0,12.08.48c5.28,0,9.76-2.72,9.76-7.8s-3.56-7-7.84-8.6c-3.84-1.44-6.04-2.2-6.04-4.64,0-1.88,1.88-3.36,4.28-3.36,3.48,0,5.8,3.16,5.8,3.16l3.32-3.28a12.035,12.035,0,0,0-9.12-4.44c-5.64,0-9.16,3.96-9.16,7.92,0,5.2,4.64,7.44,8.76,8.88C15.16-10.52,16.96-9.68,16.96-7.32ZM27.32,0h4.8V-28h-4.8ZM38.6-28V0h4.8V-18.8L52.16-5.48,60.92-18.8V0h4.8V-28H61.28L52.16-13.92,43.04-28Z" transform="translate(-1.84 28.48)" fill="#ffc225"/>
</svg>
